# xmcd
#
# Track frame offsets: 
#        150
#        12675
#        29633
#        41895
#
# Disc length: 780 seconds
#
# Revision: 0
# Processed by: cddbd v1.5.2PL0 Copyright (c) Steve Scherf et al.
# Submitted via: ExactAudioCopy v0.99pb5
#
DISCID=35030a04
DTITLE=State of The Union - Rent
DYEAR=2012
DGENRE=Blues
TTITLE0=Rent
TTITLE1=King of California
TTITLE2=Breezeblocks
TTITLE3=Boats to Build
EXTD=
EXTT0=
EXTT1=
EXTT2=
EXTT3=
PLAYORDER=
